<svg xmlns="http://www.w3.org/2000/svg" viewBox="0 0 52.1 24.68"><defs><style>.cls-1{fill:#fff;}</style></defs><title>报表</title><g id="图层_2" data-name="图层 2"><g id="图层_1-2" data-name="图层 1"><path class="cls-1" d="M5.06,0H7.17q-.11,2-.1,6c1.12,0,2.28,0,3.48-.1v2C9,7.84,7.84,7.8,7.07,7.8v4.33c1.12-.35,2.25-.74,3.37-1.16a8.6,8.6,0,0,0,0,1.9c-1,.28-2.18.63-3.37,1.05V21.3a2.65,2.65,0,0,1-.9,2.38A8.67,8.67,0,0,1,3,24.57,5.05,5.05,0,0,0,1.9,22.46a8.26,8.26,0,0,0,2.58-.26A1.14,1.14,0,0,0,5.17,21V14.55a27.12,27.12,0,0,0-4.12,1.59,18,18,0,0,0-1-2.32,48.6,48.6,0,0,0,5.17-1.27V7.8c-1.69,0-3.17,0-4.43.11v-2C1.79,6,3.27,6,5.17,6Q5.17,2.22,5.06,0Zm8.33,24.36h-2c.07-1.68.11-3.44.11-5.27V6.54c0-1.9,0-3.62-.11-5.17H22.46a48.28,48.28,0,0,1-.31,5.7A2.66,2.66,0,0,1,21,8.81a11,11,0,0,1-3.85.68,7.64,7.64,0,0,0-.63-2.11c2,.07,3.09-.07,3.37-.42s.43-1.62.43-3.8h-7v7.18h9.92a26.94,26.94,0,0,1-.95,3.53A23.07,23.07,0,0,1,20,19a18,18,0,0,0,5.27,3.8c-.49.49-1,1.09-1.68,1.79a20,20,0,0,1-4.75-4,20.69,20.69,0,0,1-4.11,4,4.55,4.55,0,0,0-1.27-1.68,12.62,12.62,0,0,0,3.9-3.59A24,24,0,0,1,14.24,12l-.85.11Zm5.28-7a15,15,0,0,0,2-5.27H16.14A15.12,15.12,0,0,0,18.67,17.4Z"/><path class="cls-1" d="M38.6,3.16c0-.91,0-1.93-.1-3.05h2.42a18.93,18.93,0,0,0-.21,3.05h6.43c1,0,2,0,3.17-.1v2a25.11,25.11,0,0,0-3.06-.21H40.71v2h5.17c1.12,0,2.21,0,3.27-.11v1.9c-1-.07-2.08-.11-3.27-.11H40.71v2.32H48.2c1.26,0,2.46,0,3.59-.1v2a26.72,26.72,0,0,0-3.49-.21H39.13c-.49.63-1.27,1.51-2.32,2.64V21.3Q38.7,20.25,41,18.67a6.62,6.62,0,0,0,.74,2.21,31.64,31.64,0,0,0-3.64,2,21.91,21.91,0,0,0-2.48,1.79c-.57-.7-1.06-1.34-1.48-1.9.49-.35.7-1.16.63-2.42V17a29.31,29.31,0,0,1-2.63,1.95q-1.38.9-2.85,1.74a9.36,9.36,0,0,0-1.58-1.79,24.44,24.44,0,0,0,5-2.85,17.08,17.08,0,0,0,3.74-3.48h-5a35.62,35.62,0,0,0-3.91.21v-2c.85.07,2.25.1,4.22.1H38.6V8.54H33.86c-1.2,0-2.18,0-3,.11V6.75c1.13.07,2.11.11,3,.11H38.6v-2H33.33a29.88,29.88,0,0,0-3.69.21V3a33.49,33.49,0,0,0,4.22.21Zm5.06,14.45a20.4,20.4,0,0,0,3.8-4,14.1,14.1,0,0,0,2.22,1.79,6.42,6.42,0,0,0-2.11,1.32C46.79,17.39,46,18.14,45,19a7,7,0,0,0,3.16,1.64,18.08,18.08,0,0,0,3.9.68,5.25,5.25,0,0,0-1.16,2.54q-5.37-1.28-7.86-3.91a16.27,16.27,0,0,1-3.63-6.11l1.68-.74A15.61,15.61,0,0,0,43.66,17.61Z"/></g></g></svg>